<svg width="46" height="52" viewBox="0 0 46 52" fill="none" xmlns="http://www.w3.org/2000/svg">
<g clip-path="url(#clip0_53_1367)">
<path d="M0.457825 28.874C0.457825 41.204 10.4878 51.224 22.8078 51.224C35.1278 51.224 45.1578 41.194 45.1578 28.874C45.1578 21.464 41.5178 14.904 35.9478 10.834L38.0278 8.03399C38.5378 7.34399 38.3978 6.37399 37.7078 5.86399C37.0178 5.35399 36.0478 5.50399 35.5378 6.18399L33.3278 9.16399C31.3778 8.12399 29.2578 7.36399 27.0278 6.93399C27.0278 6.89399 27.0478 6.86399 27.0478 6.82399V3.94399H28.4478C29.3078 3.94399 29.9978 3.24399 29.9978 2.39399C29.9978 1.54399 29.2978 0.843994 28.4478 0.843994H16.1578C15.2978 0.843994 14.6078 1.54399 14.6078 2.39399C14.6078 3.24399 15.3078 3.94399 16.1578 3.94399H17.5578V6.82399C17.5578 6.94399 17.5978 7.04399 17.6278 7.15399C15.7378 7.60399 13.9378 8.27399 12.2678 9.17399L10.0478 6.18399C9.53782 5.49399 8.56782 5.35399 7.87782 5.86399C7.18782 6.37399 7.04782 7.34399 7.55782 8.03399L9.64782 10.854C4.08782 14.914 0.457825 21.474 0.457825 28.874ZM20.6678 3.94399C20.6678 3.94399 20.7178 3.94399 20.7478 3.94399H23.8678C23.8678 3.94399 23.9178 3.94399 23.9478 3.94399V6.57399C23.5678 6.55399 23.1978 6.51399 22.8178 6.51399C22.0978 6.51399 21.3778 6.55399 20.6778 6.62399V3.94399H20.6678ZM22.8078 9.62399C33.4178 9.62399 42.0578 18.254 42.0578 28.874C42.0578 39.494 33.4278 48.124 22.8078 48.124C12.1878 48.124 3.56782 39.484 3.56782 28.874C3.56782 18.264 12.1978 9.62399 22.8078 9.62399Z" fill="#FD4C00"/>
<path d="M23.7678 30.644L29.1878 36.064C29.4878 36.364 29.8878 36.524 30.2878 36.524C30.6878 36.524 31.0778 36.374 31.3878 36.064C31.9978 35.454 31.9978 34.474 31.3878 33.864L25.9678 28.444C26.2878 27.354 26.0278 26.124 25.1578 25.264C23.8978 24.004 21.8478 24.004 20.5878 25.264C19.3278 26.524 19.3278 28.574 20.5878 29.834C21.4478 30.694 22.6778 30.954 23.7678 30.644Z" fill="#FD4C00"/>
</g>
<defs>
<clipPath id="clip0_53_1367">
<rect width="44.7" height="50.39" fill="white" transform="translate(0.457825 0.833984)"/>
</clipPath>
</defs>
</svg>
