<svg width="58" height="57" viewBox="0 0 58 57" fill="none" xmlns="http://www.w3.org/2000/svg">
<path d="M4.55998 37.8888C4.22773 37.6315 3.88434 37.4254 3.61891 37.1481C2.7094 36.1994 2.68341 34.8839 3.60035 33.9498C4.99803 32.5249 6.42541 31.1238 7.87136 29.7463C8.84955 28.8159 10.2268 28.8578 11.2347 29.8321C13.0018 31.5397 14.7577 33.2602 16.4839 35.008C16.8718 35.4002 17.1911 35.4532 17.6941 35.2762C19.1308 34.7708 20.5823 34.3111 22.0338 33.844C22.9842 33.5375 23.6004 32.9336 23.9085 31.9922C24.4115 30.456 24.9498 28.9308 25.4566 27.3964C25.7721 26.4404 26.3809 25.8055 27.3702 25.4954C28.9331 25.0046 30.4793 24.4628 32.0422 23.9683C33.0241 23.6582 33.6589 23.0488 33.9763 22.0855C34.4608 20.615 34.9471 19.1463 35.4724 17.6886C35.6208 17.2781 35.541 17.03 35.2366 16.7344C33.4881 15.0414 31.7545 13.3319 30.0227 11.6205C28.8218 10.4365 28.8162 9.14479 30.0041 7.96985C31.2273 6.75843 32.4598 5.5543 33.6849 4.34287C35.0529 2.99096 36.315 2.98549 37.696 4.33922C37.8427 4.48335 37.9615 4.65668 38.1267 4.85919C38.3438 4.6731 38.5016 4.55451 38.6408 4.41767C39.6097 3.47079 40.5638 2.50749 41.5457 1.57338C42.5499 0.619198 43.9457 0.562641 44.8942 1.55513C45.5346 2.22653 46.2176 2.49472 47.09 2.35059C48.5545 2.10794 49.5884 2.67351 50.5684 3.74811C52.1109 5.44118 53.8279 6.98101 55.4446 8.61205C55.6562 8.82551 55.762 9.18493 55.8176 9.49326C55.8808 9.8472 55.8603 10.2212 55.8269 10.5824C55.7341 11.6133 55.903 12.4689 56.7606 13.2534C57.7035 14.1164 57.5494 15.4811 56.5972 16.4334C55.5262 17.5044 54.4292 18.5479 53.1429 19.7977C53.5123 20.0586 53.8743 20.2428 54.1415 20.5147C55.0808 21.478 55.103 22.8043 54.1601 23.7658C52.7773 25.1743 51.3666 26.5572 49.9355 27.9182C48.9258 28.8797 47.5503 28.8286 46.522 27.8252C44.3522 25.7088 42.1953 23.5779 40.0366 21.4488C39.8584 21.2736 39.7192 21.062 39.4538 20.7318C39.09 21.779 38.7819 22.6182 38.5072 23.4684C37.6979 25.9789 36.0032 27.6063 33.4659 28.4145C32.3874 28.7575 31.3034 29.0877 30.2491 29.4891C29.9596 29.5985 29.6552 29.9051 29.5438 30.1915C29.1076 31.3172 28.7568 32.472 28.3559 33.6105C27.5633 35.86 26.0171 37.3889 23.7359 38.188C22.7855 38.52 21.8278 38.8265 20.7939 39.1714C21.0166 39.4049 21.1818 39.5873 21.3563 39.7607C23.4686 41.8387 25.5828 43.9131 27.6932 45.9929C28.987 47.2682 28.9907 48.5252 27.7062 49.795C26.4811 51.0046 25.2524 52.2124 24.0217 53.4184C22.7391 54.6736 21.4398 54.6736 20.1628 53.4111C19.9865 53.2359 19.864 53.0061 19.6728 52.7379C18.5461 53.8508 17.5549 54.8323 16.56 55.8084C15.1809 57.1639 13.902 57.184 12.5544 55.8193C12.1795 55.4399 11.7934 55.2392 11.2774 55.3322C9.38041 55.6752 8.01985 54.94 6.79108 53.5224C5.44165 51.968 3.88063 50.5923 2.39014 49.1601C2.06345 48.8463 1.90939 48.5289 1.94837 48.0837C1.97993 47.7225 1.92424 47.3521 1.96137 46.9927C2.05974 46.0002 1.86485 45.1975 1.04443 44.4549C0.110782 43.6102 0.224007 42.2419 1.12238 41.3242C2.05417 40.3737 3.01752 39.4523 3.96416 38.5164C4.12378 38.3595 4.27413 38.1916 4.56555 37.8851L4.55998 37.8888ZM50.6464 22.2169C45.6292 17.2818 40.6306 12.3667 35.6635 7.4809C34.9007 8.2344 34.0914 9.03532 33.3545 9.76327C38.3271 14.6491 43.3406 19.5769 48.3392 24.4883C49.0872 23.7512 49.8854 22.9649 50.6464 22.2169ZM24.4561 47.9743C19.4296 43.0282 14.4291 38.1059 9.52705 33.2821C8.76231 34.0392 7.95303 34.8383 7.25883 35.5243C12.1981 40.3846 17.1967 45.3051 22.1767 50.2055C22.9155 49.4812 23.7173 48.6949 24.4542 47.9724L24.4561 47.9743ZM40.922 7.28386C44.2111 10.5186 47.5429 13.7935 50.7856 16.9807C51.5374 16.2364 52.3466 15.4373 53.091 14.7002C49.8334 11.4983 46.5146 8.2344 43.2311 5.00697C42.4775 5.74951 41.6812 6.53402 40.9202 7.28204L40.922 7.28386ZM14.4663 52.6923C15.2978 51.8713 16.1053 51.0758 16.8124 50.377C13.5512 47.1624 10.2287 43.8894 7.00082 40.7057C6.23609 41.4574 5.4268 42.2528 4.64351 43.0246C7.90106 46.2301 11.2143 49.4922 14.4663 52.6923Z" fill="#FD4C00"/>
</svg>
