<svg width="57" height="51" viewBox="0 0 57 51" fill="none" xmlns="http://www.w3.org/2000/svg">
<path d="M56.278 15.7557V18.2431C56.2476 18.3442 56.1999 18.4439 56.1898 18.5479C55.9383 21.0455 55.0854 23.335 53.8119 25.4858C53.6081 25.8311 53.3841 25.9308 52.9995 25.9293C48.8104 25.9149 44.6213 25.912 40.4307 25.9336C39.9985 25.9351 39.7976 25.7834 39.6068 25.4266C37.8838 22.2039 36.1535 18.9856 34.3928 15.7846C34.1803 15.3989 33.8247 15.0132 33.4388 14.8196C32.6105 14.4036 31.749 14.8298 31.2936 15.7875C29.2453 20.0921 27.2014 24.401 25.156 28.7071C25.0606 28.9064 24.9594 29.1029 24.8307 29.3614C24.663 29.1087 24.5517 28.9469 24.4448 28.7808C23.1178 26.7007 21.7951 24.6177 20.4624 22.5405C19.6413 21.2607 18.2579 21.2708 17.4716 22.5622C16.8717 23.5459 16.2732 24.531 15.695 25.5277C15.5346 25.8051 15.364 25.9322 15.0229 25.9308C11.3209 25.9178 7.61892 25.9178 3.91695 25.9308C3.58159 25.9308 3.37633 25.8325 3.24045 25.5335C2.66947 24.2754 2.00165 23.0519 1.54342 21.7533C1.15891 20.6641 1.01868 19.4897 0.77005 18.3515C0.77005 17.4862 0.77005 16.6209 0.77005 15.7557C0.850999 15.2602 0.921837 14.7633 1.0129 14.2707C2.9181 3.92377 14.7829 -2.97661 25.2788 3.12352C26.4107 3.78076 27.4529 4.59113 28.5717 5.35383C28.9345 5.06782 29.3349 4.73414 29.7527 4.42357C33.2248 1.85236 37.067 0.487301 41.4397 0.917762C48.2409 1.58801 54.0461 6.54987 55.7706 13.1671C55.9918 14.0165 56.1103 14.8919 56.2765 15.7542L56.278 15.7557Z" fill="#FD4C00"/>
<path d="M6.07657 29.1636C7.71723 29.1636 9.23213 29.1636 10.747 29.1636C12.5713 29.1636 14.3955 29.1564 16.2198 29.1665C16.9367 29.1708 17.4658 28.879 17.8286 28.2651C18.203 27.6324 18.5904 27.007 19.0024 26.328C19.144 26.536 19.2539 26.6892 19.3565 26.8481C20.724 28.9888 22.0987 31.1252 23.4517 33.2746C23.8507 33.9088 24.319 34.3912 25.1285 34.345C25.9626 34.2974 26.3687 33.7441 26.6969 33.0479C28.6758 28.8472 30.6735 24.6567 32.6654 20.4619C32.7406 20.303 32.8259 20.1485 32.9372 19.9332C33.063 20.1456 33.1656 20.3088 33.2581 20.4792C34.6183 22.9985 35.9887 25.5104 37.3287 28.0412C37.7479 28.8328 38.3405 29.178 39.2396 29.1723C42.9055 29.1491 46.5728 29.1621 50.2401 29.1621H50.9281C50.7228 29.3875 50.6014 29.5319 50.4684 29.6648C43.6066 36.4771 36.7447 43.2894 29.8814 50.0988C28.9635 51.0088 28.0774 51.0247 27.197 50.1522C20.2817 43.2923 13.3678 36.4294 6.45385 29.5681C6.35411 29.4684 6.26304 29.3615 6.07946 29.1636H6.07657Z" fill="#FD4C00"/>
</svg>
