<svg width="167" height="25" viewBox="0 0 167 25" fill="none" xmlns="http://www.w3.org/2000/svg">
<path d="M0.39502 0.499999H6.65283L13.2622 16.625H13.5435L20.1528 0.499999H26.4106V24.5H21.4888V8.87891H21.2896L15.0786 24.3828H11.7271L5.51611 8.82031H5.31689V24.5H0.39502V0.499999ZM34.728 24.5H29.2905L37.5757 0.499999H44.1147L52.3882 24.5H46.9507L40.939 5.98437H40.7515L34.728 24.5ZM34.3882 15.0664H47.2319V19.0273H34.3882V15.0664ZM60.0347 0.499999L64.8745 8.67969H65.062L69.9253 0.499999H75.6558L68.3315 12.5L75.8198 24.5H69.9839L65.062 16.3086H64.8745L59.9526 24.5H54.1401L61.6519 12.5L54.2808 0.499999H60.0347ZM88.1831 10.5195V14.4805H77.2378V10.5195H88.1831Z" fill="white"/>
<path d="M108.445 8.25781C108.281 7.6875 108.05 7.18359 107.753 6.74609C107.457 6.30078 107.093 5.92578 106.664 5.62109C106.242 5.30859 105.757 5.07031 105.21 4.90625C104.671 4.74219 104.074 4.66016 103.417 4.66016C102.191 4.66016 101.113 4.96484 100.183 5.57422C99.2612 6.18359 98.5425 7.07031 98.0269 8.23437C97.5112 9.39062 97.2534 10.8047 97.2534 12.4766C97.2534 14.1484 97.5073 15.5703 98.0151 16.7422C98.5229 17.9141 99.2417 18.8086 100.171 19.4258C101.101 20.0352 102.199 20.3398 103.464 20.3398C104.613 20.3398 105.593 20.1367 106.406 19.7305C107.226 19.3164 107.851 18.7344 108.281 17.9844C108.718 17.2344 108.937 16.3477 108.937 15.3242L109.968 15.4766H103.781V11.6562H113.824V14.6797C113.824 16.7891 113.378 18.6016 112.488 20.1172C111.597 21.625 110.371 22.7891 108.808 23.6094C107.246 24.4219 105.457 24.8281 103.441 24.8281C101.191 24.8281 99.2144 24.332 97.5112 23.3398C95.8081 22.3398 94.48 20.9219 93.5269 19.0859C92.5815 17.2422 92.1089 15.0547 92.1089 12.5234C92.1089 10.5781 92.3901 8.84375 92.9526 7.32031C93.5229 5.78906 94.3198 4.49219 95.3433 3.42969C96.3667 2.36719 97.5581 1.55859 98.9175 1.00391C100.277 0.449218 101.75 0.171874 103.335 0.171874C104.695 0.171874 105.96 0.371093 107.132 0.769531C108.304 1.16016 109.343 1.71484 110.25 2.43359C111.164 3.15234 111.91 4.00781 112.488 5C113.066 5.98437 113.437 7.07031 113.601 8.25781H108.445ZM115.262 0.499999H120.946L126.418 10.8359H126.653L132.125 0.499999H137.809L129.055 16.0156V24.5H124.016V16.0156L115.262 0.499999ZM140.581 0.499999H146.838L153.448 16.625H153.729L160.338 0.499999H166.596V24.5H161.674V8.87891H161.475L155.264 24.3828H151.913L145.702 8.82031H145.502V24.5H140.581V0.499999Z" fill="#FD4C00"/>
</svg>
